# Blender v2.79 (sub 0) OBJ File: 'bounding_box.blend'
# www.blender.org
mtllib bounding_box.mtl
o Cube
v -0.472744 -0.514084 -0.492953
v -0.472744 -0.514084 -0.472953
v -0.492744 -0.514084 -0.472953
v -0.492744 -0.514084 -0.492953
v -0.472744 -0.494084 -0.492953
v -0.472744 -0.494084 -0.472953
v -0.492744 -0.494084 -0.472953
v -0.492744 -0.494084 -0.492953
v 0.487256 -0.514084 -0.492953
v 0.487256 -0.514084 -0.472953
v 0.487256 -0.494084 -0.492953
v 0.487256 -0.494084 -0.472953
v 0.507256 -0.514084 -0.492953
v 0.507256 -0.514084 -0.472953
v 0.507256 -0.494084 -0.492953
v 0.507256 -0.494084 -0.472953
v -0.472744 -0.514084 0.487047
v -0.492744 -0.514084 0.487047
v -0.472744 -0.494084 0.487047
v -0.492744 -0.494084 0.487047
v 0.487256 -0.514084 0.487047
v 0.487256 -0.494084 0.487047
v 0.507256 -0.514084 0.487047
v 0.507256 -0.494084 0.487047
v -0.472744 -0.514084 0.507047
v -0.492744 -0.514084 0.507047
v -0.472744 -0.494084 0.507047
v -0.492744 -0.494084 0.507047
v 0.487256 -0.514084 0.507047
v 0.487256 -0.494084 0.507047
v 0.507256 -0.514084 0.507047
v 0.507256 -0.494084 0.507047
v -0.492744 0.465916 -0.492953
v 0.487256 0.465916 -0.492953
v 0.507256 0.465916 -0.492953
v -0.472744 0.465916 0.487047
v -0.492744 0.465916 0.487047
v 0.487256 0.465916 0.487047
v 0.507256 0.465916 0.487047
v -0.472744 0.465916 0.507047
v -0.492744 0.465916 0.507047
v 0.487256 0.465916 0.507047
v 0.507256 0.465916 0.507047
v -0.492744 0.485916 -0.492953
v 0.487256 0.485916 -0.492953
v 0.507256 0.485916 -0.492953
v -0.492744 0.485916 0.487047
v 0.487256 0.485916 0.487047
v 0.507256 0.485916 0.487047
v -0.492744 0.485916 0.507047
v 0.487256 0.485916 0.507047
v 0.507256 0.485916 0.507047
v -0.472744 0.465916 -0.472953
v -0.492744 0.465916 -0.472953
v 0.487256 0.465916 -0.472953
v 0.507256 0.465916 -0.472953
v -0.492744 0.485916 -0.472953
v 0.487256 0.485916 -0.472953
v 0.507256 0.485916 -0.472953
v -0.472744 0.465916 -0.492953
v -0.472744 0.485916 -0.492953
v -0.472744 0.485916 -0.472953
v -0.472744 0.485916 0.487047
v -0.472744 0.485916 0.507047
vt 0.955051 0.938099
vt 0.955051 0.938273
vt 0.954884 0.938273
vt 0.954884 0.938099
vt 0.963108 0.946771
vt 0.963108 0.946945
vt 0.955051 0.946945
vt 0.955051 0.946771
vt 0.963444 0.955096
vt 0.963611 0.955096
vt 0.963611 0.963421
vt 0.963444 0.963421
vt 0.963779 0.955096
vt 0.963947 0.955096
vt 0.963947 0.963421
vt 0.963779 0.963421
vt 0.946659 0.946771
vt 0.946659 0.946945
vt 0.946491 0.946945
vt 0.946491 0.946771
vt 0.946324 0.955270
vt 0.946491 0.955270
vt 0.946491 0.955443
vt 0.946324 0.955443
vt 0.946659 0.955270
vt 0.946491 0.955270
vt 0.946324 0.946945
vt 0.946491 0.946945
vt 0.963108 0.938099
vt 0.963108 0.938273
vt 0.963611 0.938099
vt 0.963779 0.938099
vt 0.963779 0.946424
vt 0.963611 0.946424
vt 0.938099 0.955443
vt 0.938267 0.955443
vt 0.938267 0.955617
vt 0.938099 0.955617
vt 0.946324 0.946771
vt 0.946491 0.946771
vt 0.963276 0.955096
vt 0.963108 0.955096
vt 0.963108 0.946771
vt 0.963276 0.946771
vt 0.963276 0.938099
vt 0.963276 0.938273
vt 0.938099 0.963942
vt 0.938267 0.963942
vt 0.938267 0.964115
vt 0.938099 0.964115
vt 0.963108 0.946598
vt 0.963276 0.946598
vt 0.963276 0.946771
vt 0.963108 0.946771
vt 0.954548 0.955443
vt 0.954716 0.955443
vt 0.954716 0.963768
vt 0.954548 0.963768
vt 0.955051 0.946598
vt 0.954884 0.946598
vt 0.963947 0.938099
vt 0.964115 0.938099
vt 0.964115 0.946424
vt 0.963947 0.946424
vt 0.954716 0.946771
vt 0.954716 0.946945
vt 0.946324 0.946771
vt 0.946324 0.946598
vt 0.946491 0.946598
vt 0.946491 0.946771
vt 0.938267 0.946598
vt 0.938267 0.946771
vt 0.938099 0.946771
vt 0.938099 0.946598
vt 0.954884 0.946945
vt 0.954884 0.955270
vt 0.954716 0.955270
vt 0.955051 0.946771
vt 0.938267 0.946945
vt 0.938267 0.946771
vt 0.954716 0.963942
vt 0.954548 0.963942
vt 0.954884 0.946771
vt 0.963276 0.955096
vt 0.963444 0.955096
vt 0.963444 0.963421
vt 0.963276 0.963421
vt 0.963779 0.938099
vt 0.963947 0.938099
vt 0.963947 0.946424
vt 0.963779 0.946424
vt 0.938099 0.946945
vt 0.938099 0.946771
vt 0.954884 0.946945
vt 0.954884 0.946771
vt 0.954884 0.955443
vt 0.954716 0.955443
vt 0.963947 0.946771
vt 0.964115 0.946771
vt 0.964115 0.955096
vt 0.963947 0.955096
vt 0.938099 0.938273
vt 0.938267 0.938273
vt 0.946491 0.963942
vt 0.946491 0.963768
vt 0.963444 0.938099
vt 0.963611 0.938099
vt 0.963611 0.946424
vt 0.963444 0.946424
vt 0.963108 0.955270
vt 0.963108 0.955443
vt 0.955051 0.955443
vt 0.955051 0.955270
vt 0.946324 0.955443
vt 0.946324 0.955617
vt 0.963779 0.963421
vt 0.963611 0.963421
vt 0.963611 0.955096
vt 0.963779 0.955096
vt 0.938267 0.955443
vt 0.938267 0.955270
vt 0.963444 0.955096
vt 0.963276 0.955096
vt 0.963276 0.946771
vt 0.963444 0.946771
vt 0.946324 0.963942
vt 0.946324 0.964115
vt 0.954716 0.963942
vt 0.954716 0.963768
vt 0.962772 0.963768
vt 0.962772 0.963942
vt 0.946324 0.938273
vt 0.946491 0.938273
vt 0.946659 0.946771
vt 0.946491 0.946771
vt 0.946491 0.946598
vt 0.946659 0.946598
vt 0.954716 0.946771
vt 0.954716 0.946598
vt 0.954884 0.946598
vt 0.954884 0.946771
vt 0.946659 0.938273
vt 0.946491 0.938273
vt 0.946491 0.938099
vt 0.946659 0.938099
vt 0.954884 0.938273
vt 0.954716 0.938273
vt 0.954716 0.938099
vt 0.954884 0.938099
vt 0.954884 0.955443
vt 0.954884 0.955270
vt 0.963444 0.946771
vt 0.963611 0.946771
vt 0.963611 0.955096
vt 0.963444 0.955096
vt 0.963108 0.963768
vt 0.962940 0.963768
vt 0.962940 0.955443
vt 0.963108 0.955443
vt 0.938099 0.955443
vt 0.938099 0.955270
vt 0.946491 0.963942
vt 0.946491 0.955617
vt 0.962940 0.963768
vt 0.962940 0.963942
vt 0.946324 0.938099
vt 0.946659 0.955443
vt 0.946491 0.955443
vt 0.938099 0.938099
vt 0.938267 0.938099
vt 0.963611 0.946771
vt 0.963779 0.946771
vt 0.963611 0.955096
vt 0.946491 0.964115
vt 0.946491 0.955443
vt 0.963108 0.963942
vt 0.962940 0.963942
vt 0.962940 0.963768
vt 0.963108 0.963768
vt 0.963276 0.963421
vt 0.963108 0.963421
vt 0.963108 0.955096
vt 0.963276 0.955096
vt 0.963444 0.946424
vt 0.963276 0.946424
vt 0.963276 0.938099
vt 0.963444 0.938099
vt 0.963947 0.946771
vt 0.963947 0.955096
vt 0.962772 0.955443
vn 0.0000 -1.0000 0.0000
vn 1.0000 0.0000 0.0000
vn -0.0000 0.0000 1.0000
vn 0.0000 1.0000 0.0000
vn -1.0000 0.0000 0.0000
vn 0.0000 0.0000 -1.0000
usemtl Material
s off
f 1/1/1 2/2/1 3/3/1 4/4/1
f 27/5/2 19/6/2 36/7/2 40/8/2
f 6/9/3 2/10/3 10/11/3 12/12/3
f 16/13/4 12/14/4 22/15/4 24/16/4
f 3/17/5 7/18/5 8/19/5 4/20/5
f 5/21/6 1/22/6 4/23/6 8/24/6
f 8/19/5 7/18/5 54/25/5 33/26/5
f 1/22/6 5/21/6 11/27/6 9/28/6
f 2/2/1 1/1/1 9/29/1 10/30/1
f 5/31/4 6/32/4 12/33/4 11/34/4
f 13/35/2 15/36/2 16/37/2 14/38/2
f 9/28/6 11/27/6 15/39/6 13/40/6
f 2/41/2 6/42/2 19/43/2 17/44/2
f 10/30/1 9/29/1 13/45/1 14/46/1
f 23/47/2 24/48/2 32/49/2 31/50/2
f 21/51/1 23/52/1 31/53/1 29/54/1
f 14/38/2 16/37/2 24/48/2 23/47/2
f 10/30/1 14/46/1 23/52/1 21/51/1
f 12/55/5 10/56/5 21/57/5 22/58/5
f 3/3/1 2/2/1 17/59/1 18/60/1
f 6/61/4 7/62/4 20/63/4 19/64/4
f 7/18/5 3/17/5 18/65/5 20/66/5
f 25/67/3 27/68/3 28/69/3 26/70/3
f 30/71/3 29/72/3 31/73/3 32/74/3
f 20/66/5 28/75/5 41/76/5 37/77/5
f 25/78/1 17/59/1 21/51/1 29/54/1
f 15/39/6 11/27/6 34/79/6 35/80/6
f 22/58/5 21/57/5 29/81/5 30/82/5
f 20/66/5 18/65/5 26/83/5 28/75/5
f 18/60/1 17/59/1 25/78/1 26/83/1
f 17/84/6 19/85/6 22/86/6 21/87/6
f 27/68/3 25/67/3 29/72/3 30/71/3
f 19/88/4 27/89/4 30/90/4 22/91/4
f 35/80/6 34/79/6 45/92/6 46/93/6
f 40/8/2 36/7/2 63/94/2 64/95/2
f 37/77/5 41/76/5 50/96/5 47/97/5
f 24/98/6 22/99/6 38/100/6 39/101/6
f 30/71/3 32/74/3 43/102/3 42/103/3
f 22/58/5 30/82/5 42/104/5 38/105/5
f 11/106/5 12/107/5 55/108/5 34/109/5
f 6/110/2 5/111/2 60/112/2 53/113/2
f 16/37/2 15/36/2 35/114/2 56/115/2
f 19/116/6 20/117/6 37/118/6 36/119/6
f 5/21/6 8/24/6 33/120/6 60/121/6
f 12/122/3 16/123/3 56/124/3 55/125/3
f 32/49/2 24/48/2 39/126/2 43/127/2
f 7/128/3 6/129/3 53/130/3 54/131/3
f 28/69/3 27/68/3 40/132/3 41/133/3
f 61/134/4 44/135/4 57/136/4 62/137/4
f 45/138/4 58/139/4 59/140/4 46/141/4
f 63/142/4 47/143/4 50/144/4 64/145/4
f 49/146/4 48/147/4 51/148/4 52/149/4
f 53/113/2 60/112/2 61/150/2 62/151/2
f 34/152/1 55/153/1 53/154/1 60/155/1
f 38/156/5 48/157/5 58/158/5 55/159/5
f 60/121/6 33/120/6 44/160/6 61/161/6
f 49/162/2 39/126/2 56/115/2 59/163/2
f 54/131/3 53/130/3 62/164/3 57/165/3
f 41/133/3 40/132/3 64/166/3 50/144/3
f 33/26/5 54/25/5 57/167/5 44/168/5
f 42/103/3 43/102/3 52/169/3 51/170/3
f 48/171/6 38/172/6 36/119/6 63/173/6
f 43/127/2 39/126/2 49/162/2 52/174/2
f 56/115/2 35/114/2 46/175/2 59/163/2
f 56/176/6 55/177/6 58/178/6 59/179/6
f 39/180/1 38/181/1 55/182/1 56/183/1
f 47/143/4 63/142/4 62/137/4 57/136/4
f 37/77/5 47/97/5 57/167/5 54/25/5
f 63/94/2 36/7/2 53/113/2 62/151/2
f 36/184/1 37/185/1 54/186/1 53/187/1
f 48/147/4 49/146/4 59/140/4 58/139/4
f 38/172/1 42/188/1 40/189/1 36/119/1
f 55/190/3 58/158/3 62/164/3 53/130/3
f 42/103/3 51/170/3 64/166/3 40/132/3
f 58/139/4 45/138/4 61/134/4 62/137/4
f 51/148/4 48/147/4 63/142/4 64/145/4
f 45/92/6 34/79/6 60/121/6 61/161/6
