# Blender v2.78 (sub 0) OBJ File: 'imp_exp.blend'
# www.blender.org
mtllib imp_exp.mtl
o Cube
v -1.000000 -1.000000 1.000000
v -1.000000 1.000000 1.000000
v -1.000000 -1.000000 -1.000000
v -1.000000 1.000000 -1.000000
v 1.000000 -1.000000 1.000000
v 1.000000 1.000000 1.000000
v 1.000000 -1.000000 -1.000000
v 1.000000 1.000000 -1.000000
vt 0.2500 0.9999
vt 0.5000 0.7500
vt 0.2500 0.7500
vt 0.7500 0.2500
vt 0.5000 0.5000
vt 0.7500 0.5000
vt 0.5000 0.2500
vt 0.2500 0.5000
vt 0.2500 0.2500
vt 0.0001 0.5000
vt 0.5000 0.0001
vt 0.5000 0.9999
vt 0.0001 0.2500
vt 0.2500 0.0001
vn -1.0000 0.0000 0.0000
vn 0.0000 0.0000 -1.0000
vn 1.0000 0.0000 0.0000
vn 0.0000 0.0000 1.0000
vn 0.0000 -1.0000 0.0000
vn 0.0000 1.0000 0.0000
usemtl None
s off
f 2/1/1 3/2/1 1/3/1
f 4/4/2 7/5/2 3/6/2
f 8/7/3 5/8/3 7/5/3
f 6/9/4 1/10/4 5/8/4
f 7/5/5 1/3/5 3/2/5
f 4/11/6 6/9/6 8/7/6
f 2/1/1 4/12/1 3/2/1
f 4/4/2 8/7/2 7/5/2
f 8/7/3 6/9/3 5/8/3
f 6/9/4 2/13/4 1/10/4
f 7/5/5 5/8/5 1/3/5
f 4/11/6 2/14/6 6/9/6
